<?xml version="1.0" encoding="UTF-8" standalone="no"?><!-- Generator: Gravit.io --><svg xmlns="http://www.w3.org/2000/svg" xmlns:xlink="http://www.w3.org/1999/xlink" style="isolation:isolate" viewBox="0 0 437.4 155.3" width="437.4pt" height="155.3pt"><defs><clipPath id="_clipPath_j0iFRbMattSIdfaZclzBz6geLsjQiO2r"><rect width="437.4" height="155.3"/></clipPath></defs><g clip-path="url(#_clipPath_j0iFRbMattSIdfaZclzBz6geLsjQiO2r)"><g><path d=" M 106.66 105.065 C 104.981 106.338 103.221 107.519 101.639 108.903 C 98.831 111.36 96.143 113.954 93.378 116.462 C 92.359 117.386 91.306 118.285 90.198 119.098 C 87.813 120.847 85.389 122.542 82.966 124.237 C 82.398 124.635 81.769 124.946 80.858 125.477 C 80.997 124.762 80.996 124.299 81.181 123.928 C 81.478 123.332 81.844 122.752 82.273 122.243 C 87.574 115.949 91.074 108.681 93.735 100.974 C 95.947 94.566 97.364 87.973 97.969 81.219 C 98.175 78.922 98.213 76.61 98.341 74.051 C 91.987 77.792 86.558 82.222 81.69 87.407 C 82.899 85.222 84.069 83.014 85.324 80.856 C 90.694 71.626 98.346 64.929 108.101 60.671 C 113.335 58.386 118.674 56.345 123.94 54.133 C 129.862 51.647 135.251 48.359 139.55 43.477 C 141.762 40.966 143.617 38.215 145.193 35.27 C 145.294 35.082 145.409 34.903 145.518 34.721 C 145.615 34.771 145.712 34.821 145.809 34.871 C 143.596 39.344 141.497 43.878 139.138 48.272 C 136.476 53.234 133.283 57.857 129.245 61.832 C 128.264 62.797 127.222 63.713 126.129 64.548 C 122.941 66.983 121.408 70.226 121.233 74.182 C 120.9 81.671 120.47 89.158 120.238 96.65 C 119.941 106.229 119.737 115.812 119.612 125.395 C 119.513 133.058 119.592 140.722 119.592 148.386 C 119.49 148.413 119.387 148.441 119.285 148.468 C 115.248 134.053 111.212 119.638 107.175 105.222 C 107.003 105.17 106.832 105.117 106.66 105.065 Z " fill="rgb(243,125,60)"/><path d=" M 84.193 155.267 C 82.607 151.785 81.122 148.252 79.415 144.83 C 75.035 136.052 70.78 127.199 66.032 118.621 C 63.261 113.615 59.64 109.081 56.398 104.337 C 56.346 104.261 56.254 104.212 56.079 104.066 C 55.463 111.165 52.486 117.562 50.806 124.306 C 49.125 131.05 47.004 137.668 44.172 144.33 C 44.172 142.758 44.124 141.449 44.18 140.145 C 44.677 128.615 44.97 117.078 44.245 105.555 C 43.885 99.829 43.294 94.088 42.329 88.436 C 40.926 80.222 36.546 76.005 28.319 74.623 C 24.085 73.912 19.777 73.641 15.502 73.167 C 14.974 73.109 14.449 73.022 13.9 72.788 C 27.846 71.903 41.119 68.236 54.092 63.217 C 53.153 61.761 51.565 61.217 49.875 61.07 C 46.662 60.792 43.437 60.626 40.214 60.479 C 39.311 60.439 38.862 60.106 38.734 59.225 C 38.643 58.595 38.441 57.982 38.338 57.354 C 37.964 55.061 38.584 53.106 40.577 51.821 C 41.722 51.083 42.981 50.443 44.275 50.028 C 46.486 49.319 48.298 50.235 49.745 51.898 C 51.758 54.21 52.779 57.023 53.613 59.912 C 53.937 61.033 54.198 62.173 54.485 63.295 C 56.039 63.07 57.523 62.826 59.015 62.644 C 64.638 61.956 69.137 64.041 72.758 68.263 C 74.974 70.847 76.684 73.749 78.102 76.598 C 76.764 74.999 75.403 73.168 73.83 71.542 C 71.893 69.538 69.614 67.978 66.796 67.436 C 64.138 66.925 61.878 67.77 60.002 69.641 C 59.757 69.885 59.716 70.52 59.824 70.904 C 61.306 76.135 62.813 81.36 64.349 86.575 C 69.582 104.352 74.847 122.119 80.06 139.902 C 81.551 144.987 82.908 150.112 84.327 155.218 C 84.282 155.235 84.238 155.251 84.193 155.267 Z " fill="rgb(243,125,60)"/><path d=" M 25.893 150.211 C 25.044 147.291 24.081 144.398 23.369 141.444 C 21.912 135.405 20.599 129.329 18.052 123.621 C 17.55 122.496 16.892 121.44 16.235 120.221 C 14.69 121.932 13.278 123.5 11.861 125.065 C 9.066 128.152 6.027 130.929 2.15 132.624 C 1.52 132.9 0.858 133.106 0 133.422 C 2.758 128.784 5.288 124.305 7.003 119.444 C 9.314 112.892 11.547 106.31 12.734 99.432 C 13.167 96.928 12.67 95.961 10.388 94.827 C 6.878 93.081 4.327 90.312 2.179 87.116 C 2.153 87.078 2.188 87 2.2 86.882 C 6.161 89.361 10.53 88.692 14.832 88.618 C 17.984 88.564 21.15 88.441 24.288 88.662 C 28.86 88.983 31.689 91.779 33.511 95.797 C 34.86 98.774 35.483 101.922 35.831 105.141 C 36.065 107.307 36.266 109.477 36.403 111.67 C 35.089 107.325 33.405 103.185 30.255 99.816 C 29.693 99.215 29.033 98.706 28.213 97.969 C 27.635 101.025 27.036 103.804 26.591 106.607 C 25.055 116.283 24.891 126.024 25.41 135.781 C 25.625 139.841 26.066 143.889 26.371 147.945 C 26.426 148.68 26.317 149.427 26.284 150.169 C 26.154 150.183 26.023 150.197 25.893 150.211 Z " fill="rgb(243,125,60)"/><path d=" M 160.872 74.365 C 160.445 75.692 160.037 77.025 159.588 78.344 C 158.144 82.584 156.485 86.734 153.986 90.479 C 153.039 91.899 151.95 93.236 150.829 94.527 C 149.369 96.21 148.787 98.119 149.034 100.305 C 149.527 104.676 149.972 109.054 150.539 113.416 C 151.272 119.044 152.061 124.666 152.907 130.278 C 153.774 136.021 154.743 141.748 155.658 147.484 C 155.847 148.671 155.994 149.865 156.093 151.076 C 151.84 141.31 148.427 131.194 143.595 121.38 C 142.715 122.375 141.854 123.139 141.248 124.07 C 139.07 127.42 136.954 130.812 134.866 134.22 C 134.038 135.571 132.892 136.549 131.694 137.498 C 131.592 137.463 131.49 137.428 131.389 137.394 C 131.508 136.623 131.512 135.811 131.766 135.087 C 134.476 127.385 135.555 119.431 135.34 111.304 C 135.272 108.729 134.811 106.164 134.518 103.596 C 134.489 103.345 134.374 103.104 134.266 102.751 C 130.97 105.104 128.127 107.773 125.708 111.188 C 125.736 110.822 125.734 110.656 125.765 110.496 C 125.798 110.333 125.872 110.179 125.915 110.017 C 127.704 103.284 132.075 98.572 137.802 94.97 C 141.528 92.626 145.363 90.455 149.084 88.103 C 154.189 84.876 158.03 80.522 160.401 74.925 C 160.49 74.714 160.594 74.509 160.691 74.302 C 160.751 74.323 160.812 74.344 160.872 74.365 Z " fill="rgb(243,125,60)"/><path d=" M 118.607 48.718 C 118.494 49.36 118.418 50.341 118.142 51.263 C 117.287 54.123 114.812 55.467 112.002 54.501 C 109.625 53.683 107.532 52.349 105.95 50.334 C 104.797 48.866 104.701 47.459 105.687 45.867 C 107.132 43.535 109.164 41.88 111.736 40.941 C 114.004 40.113 115.786 40.792 117.097 42.827 C 118.193 44.529 118.482 46.431 118.607 48.718 Z " fill="rgb(243,125,60)"/><path d=" M 135.498 88.603 C 135.142 86.994 135.403 85.348 136.302 83.821 C 137.382 81.983 138.937 80.604 140.767 79.553 C 142.129 78.772 143.418 79.191 143.979 80.807 C 144.567 82.503 144.841 84.308 145.245 86.067 C 145.29 86.262 145.254 86.478 145.312 86.667 C 145.571 87.499 145.188 87.718 144.419 87.751 C 142.341 87.838 140.261 87.948 138.188 88.116 C 137.312 88.187 136.45 88.425 135.498 88.603 Z " fill="rgb(243,125,60)"/><path d=" M 27.97 83.455 C 27.97 83.791 28 84.129 27.965 84.462 C 27.68 87.217 25.568 88.5 23.084 87.29 C 21.933 86.729 20.841 85.926 19.928 85.023 C 18.819 83.928 18.822 82.941 19.7 81.666 C 20.716 80.193 22.049 79.093 23.806 78.586 C 25.057 78.226 26.024 78.54 26.828 79.576 C 27.713 80.718 27.978 82.051 27.97 83.455 Z " fill="rgb(243,125,60)"/><path d=" M 71.849 34.463 C 73.518 35.017 74.943 35.489 76.556 36.024 C 75.697 38.247 74.861 40.409 74.026 42.571 C 73.94 42.572 73.854 42.573 73.769 42.574 C 73.148 39.952 72.528 37.329 71.849 34.463 Z " fill="rgb(243,125,60)"/><path d=" M 88.493 31.104 C 89.084 29.658 89.613 28.362 90.215 26.887 C 91.946 29.01 93.569 31.002 95.192 32.993 C 95.154 33.048 95.115 33.103 95.077 33.158 C 92.917 32.484 90.757 31.81 88.493 31.104 Z " fill="rgb(243,125,60)"/><path d=" M 94.439 9.332 C 93.077 11.045 91.716 12.759 90.197 14.67 C 89.606 13.197 89.093 11.917 88.509 10.459 C 90.464 10.008 92.375 9.567 94.285 9.126 C 94.337 9.195 94.388 9.263 94.439 9.332 Z " fill="rgb(243,125,60)"/><path d=" M 54.395 18.247 C 56.785 17.844 59.175 17.441 61.755 17.005 C 61.484 18.106 61.251 19.055 60.993 20.104 C 58.753 19.519 56.578 18.95 54.403 18.382 C 54.401 18.337 54.398 18.292 54.395 18.247 Z " fill="rgb(243,125,60)"/><path d=" M 86.344 40.466 C 84.963 38.979 83.583 37.492 82.117 35.913 C 83.091 35.389 83.987 34.908 85.033 34.346 C 85.568 36.406 86.08 38.378 86.592 40.35 C 86.509 40.389 86.427 40.427 86.344 40.466 Z " fill="rgb(243,125,60)"/><path d=" M 72.144 6.731 C 70.948 7.433 69.92 8.036 68.747 8.724 L 68.747 3.126 C 69.927 4.378 70.98 5.496 72.144 6.731 Z " fill="rgb(243,125,60)"/><path d=" M 62.435 26.3 L 56.268 26.3 C 56.235 26.213 56.202 26.125 56.169 26.038 C 57.841 25.235 59.513 24.432 61.277 23.585 C 61.684 24.54 62.044 25.384 62.435 26.3 Z " fill="rgb(243,125,60)"/><path d=" M 96.037 19.794 C 94.237 20.438 92.735 20.976 91.098 21.562 L 91.098 18.032 C 92.634 18.58 94.186 19.134 96.037 19.794 Z " fill="rgb(243,125,60)"/><path d=" M 86.934 0.183 C 86.406 2.248 85.877 4.313 85.317 6.502 C 84.494 6.057 83.797 5.681 83.023 5.263 C 84.305 3.495 85.539 1.794 86.772 0.093 C 86.826 0.123 86.88 0.153 86.934 0.183 Z " fill="rgb(243,125,60)"/><path d=" M 67.539 31.772 C 65.662 32.653 63.967 33.448 62.271 34.243 C 62.236 34.185 62.2 34.126 62.164 34.068 C 63.25 32.774 64.336 31.48 65.505 30.087 C 66.122 30.598 66.724 31.097 67.539 31.772 Z " fill="rgb(243,125,60)"/><path d=" M 77.927 0 C 78.302 1.7 78.607 3.086 78.936 4.579 C 77.966 4.733 77.129 4.865 76.134 5.023 C 76.74 3.324 77.284 1.802 77.927 0 Z " fill="rgb(243,125,60)"/><path d=" M 61.866 9.899 C 63.298 10.404 64.449 10.81 65.715 11.257 C 65.077 11.996 64.518 12.644 63.87 13.394 C 63.206 12.236 62.615 11.205 61.866 9.899 Z " fill="rgb(243,125,60)"/><path d=" M 198.395 94.156 L 193.815 107.837 L 202.947 107.837 L 198.395 94.156 Z  M 191.522 114.678 L 187.359 127.134 L 178.971 127.134 L 194.201 81.571 L 194.104 81.345 L 202.655 81.345 L 202.589 81.571 L 217.788 127.134 L 209.4 127.134 L 205.237 114.678 L 191.522 114.678 Z " fill="rgb(47,119,187)"/><path d=" M 259.903 112.065 C 259.062 116.626 257.524 119.735 255.288 121.391 C 250.876 126.102 245.553 128.458 239.314 128.458 C 233.076 128.458 227.753 126.107 223.34 121.407 C 218.932 116.707 216.728 111.033 216.728 104.386 C 216.728 97.738 218.932 92.064 223.34 87.363 C 227.753 82.664 233.076 80.313 239.314 80.313 C 245.553 80.313 250.876 82.658 255.288 87.348 C 257.052 89.241 258.47 91.295 259.549 93.511 L 251.383 93.511 C 251.126 93.188 250.845 92.866 250.545 92.542 C 247.512 89.316 243.843 87.702 239.54 87.702 C 235.237 87.702 231.569 89.321 228.535 92.559 C 225.506 95.797 223.987 99.707 223.987 104.288 C 223.987 108.849 225.506 112.748 228.535 115.985 C 231.569 119.224 235.237 120.842 239.54 120.842 C 243.843 120.842 247.512 119.219 250.545 115.97 C 251.492 114.937 252.255 113.635 252.835 112.065 L 259.903 112.065 Z " fill="rgb(47,119,187)"/><path d=" M 263.26 81.539 L 271.652 81.539 L 271.652 119.293 L 293.53 119.293 L 293.53 127.328 L 263.26 127.328 L 263.26 81.539 Z " fill="rgb(47,119,187)"/><path d=" M 316.922 94.156 L 312.339 107.837 L 321.47 107.837 L 316.922 94.156 Z  M 310.049 114.678 L 305.886 127.134 L 297.494 127.134 L 312.724 81.571 L 312.631 81.345 L 321.178 81.345 L 321.116 81.571 L 336.315 127.134 L 327.923 127.134 L 323.76 114.678 L 310.049 114.678 Z " fill="rgb(47,119,187)"/><path d=" M 348.543 95.608 L 348.543 127.328 L 340.155 127.328 L 340.155 81.539 L 348.255 81.539 L 348.609 81.281 L 363.902 104.837 L 380.199 81.281 L 380.553 81.539 L 388.653 81.539 L 388.653 127.328 L 380.265 127.328 L 380.265 95.254 L 363.773 117.551 L 359.482 111.194 L 359.579 111.065 L 348.543 95.608 Z " fill="rgb(47,119,187)"/><path d=" M 428.697 104.32 C 428.697 97.286 425.309 92.252 418.533 89.218 C 417.778 88.832 416.715 88.638 415.336 88.638 L 413.015 88.638 C 408.864 88.638 404.989 91.639 401.399 97.64 C 400.624 100.373 400.234 102.6 400.234 104.32 C 400.234 111.893 403.914 117.035 411.271 119.745 C 412.992 119.981 414.059 120.175 414.468 120.325 C 420.402 120.325 424.76 116.926 427.537 110.129 C 427.922 109.505 428.308 107.569 428.697 104.32 Z  M 414.853 80.312 C 421.092 80.312 426.415 82.663 430.827 87.363 C 435.235 92.064 437.443 97.738 437.443 104.385 C 437.443 111.033 435.235 116.706 430.827 121.407 C 426.415 126.107 421.092 128.457 414.853 128.457 C 408.615 128.457 403.291 126.107 398.879 121.407 C 394.471 116.706 392.267 111.033 392.267 104.385 C 392.267 97.738 394.471 92.064 398.879 87.363 C 403.291 82.663 408.615 80.312 414.853 80.312 Z " fill="rgb(47,119,187)"/></g></g></svg>